HIERARCHY
ROOT root
{
	OFFSET	0	13.1	24.9
	CHANNELS 6  Xposition Yposition Zposition Xrotation Yrotation Zrotation
	JOINT spine_1
	{
		OFFSET	0	9.99999	0
		CHANNELS 3  Xrotation Yrotation Zrotation
		JOINT spine_2
		{
			OFFSET	0	112	-10
			CHANNELS 3  Xrotation Yrotation Zrotation
			JOINT spine_3
			{
				OFFSET	0	206.5	19.3
				CHANNELS 3  Xrotation Yrotation Zrotation
				JOINT spine_4
				{
					OFFSET	0	110.4	14.6
					CHANNELS 3  Xrotation Yrotation Zrotation
					JOINT neck_1
					{
						OFFSET	0	71.8	-50.3
						CHANNELS 3  Xrotation Yrotation Zrotation
						JOINT neck_2
						{
							OFFSET	0	86.2	-25.8
							CHANNELS 3  Xrotation Yrotation Zrotation
							JOINT head_ee
							{
								OFFSET	0	179.8	-8.7
								CHANNELS 3  Xrotation Yrotation Zrotation
								End Site
								{
									OFFSET	1	0	0
								}
							}
						}
					}
					JOINT left_clavicle
					{
						OFFSET	-43.2	22.4	-70.8
						CHANNELS 3  Xrotation Yrotation Zrotation
						JOINT left_shoulder
						{
							OFFSET	-93.9	-5.79999	48.7
							CHANNELS 3  Xrotation Yrotation Zrotation
							JOINT left_elbow
							{
								OFFSET	-291.4	-30.8	15.2
								CHANNELS 3  Xrotation Yrotation Zrotation
								JOINT left_lowarm_twist
								{
									OFFSET	-110.7	-3.89999	13.6
									CHANNELS 3  Xrotation Yrotation Zrotation
									JOINT left_hand
									{
										OFFSET	-110.7	-3.89999	13.6
										CHANNELS 3  Xrotation Yrotation Zrotation
										JOINT left_ee
										{
											OFFSET	-80.8	-5.10001	12.1
											CHANNELS 3  Xrotation Yrotation Zrotation
											End Site
											{
												OFFSET	1	0	0
											}
										}
									}
								}
							}
						}
					}
					JOINT right_clavicle
					{
						OFFSET	43.2	22.4	-70.8
						CHANNELS 3  Xrotation Yrotation Zrotation
						JOINT right_shoulder
						{
							OFFSET	93.9	-5.79999	48.7
							CHANNELS 3  Xrotation Yrotation Zrotation
							JOINT right_elbow
							{
								OFFSET	291.4	-30.8	15.2
								CHANNELS 3  Xrotation Yrotation Zrotation
								JOINT right_lowarm_twist
								{
									OFFSET	110.7	-3.89999	13.6
									CHANNELS 3  Xrotation Yrotation Zrotation
									JOINT right_hand
									{
										OFFSET	110.7	-3.89999	13.6
										CHANNELS 3  Xrotation Yrotation Zrotation
										JOINT right_ee
										{
											OFFSET	80.8	-5.10001	12.1
											CHANNELS 3  Xrotation Yrotation Zrotation
											End Site
											{
												OFFSET	1	0	0
											}
										}
									}
								}
							}
						}
					}
				}
			}
		}
	}
	JOINT left_hip
	{
		OFFSET	-82.8	-127.5	0.300001
		CHANNELS 3  Xrotation Yrotation Zrotation
		JOINT left_knee
		{
			OFFSET	-28.2	-396.7	2.2
			CHANNELS 3  Xrotation Yrotation Zrotation
			JOINT left_ankle
			{
				OFFSET	-11.7	-411.3	35.4
				CHANNELS 3  Xrotation Yrotation Zrotation
				JOINT left_toes
				{
					OFFSET	0	-60	-88.6
					CHANNELS 3  Xrotation Yrotation Zrotation
					JOINT left_foot_ee
					{
						OFFSET	-22.5	-16.5	-42.2
						CHANNELS 3  Xrotation Yrotation Zrotation
						End Site
						{
							OFFSET	1	0	0
						}
					}
				}
			}
		}
	}
	JOINT right_hip
	{
		OFFSET	82.8	-127.5	0.300001
		CHANNELS 3  Xrotation Yrotation Zrotation
		JOINT right_knee
		{
			OFFSET	28.2	-396.7	2.2
			CHANNELS 3  Xrotation Yrotation Zrotation
			JOINT right_ankle
			{
				OFFSET	11.7	-411.3	35.4
				CHANNELS 3  Xrotation Yrotation Zrotation
				JOINT right_toes
				{
					OFFSET	0	-60	-88.6
					CHANNELS 3  Xrotation Yrotation Zrotation
					JOINT right_foot_ee
					{
						OFFSET	22.5	-16.5	-42.2
						CHANNELS 3  Xrotation Yrotation Zrotation
						End Site
						{
							OFFSET	1	0	0
						}
					}
				}
			}
		}
	}
}
MOTION
Frames: 13
Frame Time: 0.02
3437.91323692 725.284 -1564.11462359 8.0210408672 67.1914266087 -10.2250718283 -1.40512 0.394529 0.0294941 -1.4052 0.391853 0.0545396 -1.40488 0.3682 0.144749 -1.4047 0.386439 0.0847809 -28.9506 19.76 13.2681 -31.5478 33.2055 24.6765 -0.0 0.0 -0.0 2.77667 22.3541 6.49181 -24.1459 -1.48951 71.4814 1.37903 -34.3363 0.426059 -13.0915 -0.640625 1.5428 -0.94654 13.0129 -0.600357 -0.0 0.0 -0.0 14.0562 27.2172 -27.9781 -1.05064 13.0382 -57.6235 0.674534 18.4768 -0.109716 63.8916 2.13237 7.45497 1.17255 -29.2683 -17.9732 0.0 0.0 0.0 7.79332 20.6926 -7.3711 -44.1065 -0.748474 6.56336 37.3243 -0.55101 -4.6425 7.46186 -0.0 -0.0 -0.0 0.0 -0.0 1.03074 -16.5557 5.27875 -12.456 -0.309238 -1.8828 38.1491 28.8222 5.65296 -13.0564 0.0 0.0 0.0 0.0 0.0 
3430.95894082 724.916 -1568.35995139 6.73523703203 65.6566344033 -8.28665919598 -1.163 0.473444 -0.0692724 -1.16313 0.476892 -0.0390049 -1.16355 0.473079 0.0717192 -1.16324 0.478469 -0.00389662 -29.1656 19.6207 13.4086 -31.7244 32.9236 24.7857 -0.0 0.0 -0.0 2.45073 22.8973 6.05337 -25.3526 -0.208222 72.145 1.34156 -33.605 0.405121 -12.6753 -0.614894 1.49616 -1.03081 13.4947 -0.917268 -0.0 0.0 -0.0 14.2111 28.2183 -28.2013 1.25467 14.3058 -57.9 0.742742 20.2002 -0.132305 63.9047 2.13361 7.45609 1.04776 -28.7678 -17.1242 0.0 0.0 0.0 9.08236 18.5652 -8.87276 -44.3795 -0.768633 6.6002 37.4407 -0.972749 -4.65676 7.35741 -0.0 -0.0 -0.0 0.0 -0.0 0.884905 -18.3438 5.45954 -12.6242 -0.310595 -1.90856 38.2345 29.0963 5.67973 -12.4923 0.0 0.0 0.0 0.0 0.0 
3423.01032824 725.581 -1568.22978716 6.85591482346 64.9615910637 -8.30621061485 -1.21269 0.546485 -0.0783819 -1.21286 0.550365 -0.0434477 -1.21342 0.545531 0.0847679 -1.213 0.552072 -0.00245499 -30.3552 18.7911 14.3636 -32.6455 31.2142 25.4918 -0.0 0.0 -0.0 2.45057 23.2279 6.06575 -26.6268 0.505735 73.1784 1.25175 -31.8009 0.356594 -12.39 -0.597458 1.4641 -1.05917 13.7936 -0.962724 -0.0 0.0 -0.0 14.1673 29.0037 -27.9846 3.13067 15.4809 -58.9577 0.82891 22.3238 -0.163558 63.9268 2.13572 7.45799 0.951232 -28.6181 -16.5322 0.0 0.0 0.0 12.5874 16.7618 -11.5642 -43.729 -0.720885 6.51225 34.5373 -2.58246 -4.39802 5.02183 -0.0 -0.0 -0.0 0.0 -0.0 1.09488 -23.7858 5.8404 -11.5371 -0.300488 -1.74207 37.2418 29.4496 5.60188 -12.4216 0.0 0.0 0.0 0.0 0.0 
3422.94502484 725.581 -1568.12395484 6.86616386734 65.0013442939 -8.31752088936 -1.21269 0.546485 -0.0783819 -1.21286 0.550365 -0.0434477 -1.21342 0.545531 0.0847679 -1.213 0.552072 -0.00245499 -30.3552 18.7911 14.3636 -32.6455 31.2142 25.4918 -0.0 0.0 -0.0 2.45057 23.2279 6.06575 -26.6268 0.505735 73.1784 1.25175 -31.8009 0.356594 -12.39 -0.597458 1.4641 -1.05917 13.7936 -0.962724 -0.0 0.0 -0.0 14.1673 29.0037 -27.9846 3.13067 15.4809 -58.9577 0.82891 22.3238 -0.163558 63.9268 2.13572 7.45799 0.951232 -28.6181 -16.5322 0.0 0.0 0.0 12.5874 16.7618 -11.5642 -43.729 -0.720885 6.51225 34.5373 -2.58246 -4.39802 5.02183 -0.0 -0.0 -0.0 0.0 -0.0 1.09488 -23.7858 5.8404 -11.5371 -0.300488 -1.74207 37.2418 29.4496 5.60188 -12.4216 0.0 0.0 0.0 0.0 0.0 
3420.09779092 726.582 -1568.60555584 6.43251238638 65.0592296406 -7.55758773338 -1.11645 0.628941 0.0207907 -1.11667 0.626343 0.0607713 -1.11614 0.595748 0.202693 -1.11566 0.620283 0.106059 -30.9789 18.2435 15.0542 -33.0532 30.0639 25.9376 -0.0 0.0 -0.0 2.18017 23.4526 5.70206 -26.7095 0.974528 73.6812 1.19094 -30.5377 0.325121 -12.1946 -0.585607 1.44208 -1.07845 14.0244 -0.981037 -0.0 0.0 -0.0 14.2339 29.5379 -28.0585 4.9767 16.4863 -59.835 0.906069 24.1721 -0.194018 63.9619 2.13906 7.46101 0.888352 -28.5784 -16.1636 0.0 0.0 0.0 15.0109 15.3862 -13.4365 -42.803 -0.654654 6.38615 32.4343 -3.86483 -4.20276 3.37591 -0.0 -0.0 -0.0 0.0 -0.0 1.36468 -27.9037 5.98573 -11.1335 -0.295932 -1.68031 36.5498 29.6416 5.54212 -12.3356 0.0 0.0 0.0 0.0 0.0 
3409.40947599 726.037 -1567.06802774 6.40799962827 64.7746099688 -6.75942807718 -1.08479 0.617751 -0.0786122 -1.085 0.621501 -0.0391423 -1.0856 0.613986 0.104008 -1.08507 0.622706 0.005731 -29.4225 18.3125 14.406 -31.3621 30.1616 24.7544 -0.0 0.0 -0.0 1.82265 24.1686 5.25017 -28.4919 2.22436 75.0055 1.10666 -28.731 0.283439 -11.9925 -0.573429 1.41927 -1.04305 14.1844 -0.689769 -0.0 0.0 -0.0 13.9595 28.7952 -27.5326 7.32451 17.549 -60.7872 1.03422 27.1264 -0.249507 65.1498 2.25323 7.56191 0.855135 -28.6802 -16.0052 0.0 0.0 0.0 16.025 12.2701 -14.4296 -37.12 -0.293786 5.59087 27.9472 -3.58342 -3.72022 1.83845 -0.0 -0.0 -0.0 0.0 -0.0 0.760599 -30.1607 5.92304 -10.6071 -0.289336 -1.5998 36.2161 32.9851 5.74899 -12.1409 0.0 0.0 0.0 0.0 0.0 
3400.5169091 722.039 -1569.18205491 6.2025190086 66.4497964027 -5.98295507847 -1.0347 0.54755 -0.110758 -1.03486 0.553488 -0.0756901 -1.03573 0.556177 0.0523942 -1.0353 0.557472 -0.0361039 -28.8972 17.863 13.7343 -30.6961 29.4437 23.6238 -0.0 0.0 -0.0 1.56815 24.1533 4.90515 -28.7908 3.1694 75.214 1.04047 -27.2668 0.252366 -11.9882 -0.573167 1.41878 -1.21355 14.365 -1.67087 -0.0 0.0 -0.0 13.891 28.6853 -27.3896 9.23919 19.2151 -61.0754 1.09833 28.5489 -0.279447 64.0893 2.15121 7.47195 0.822512 -28.442 -15.7501 0.0 0.0 0.0 20.75 12.2984 -17.523 -28.91 0.0842702 4.38899 26.8496 -2.30813 -3.58385 0.334778 -0.0 -0.0 -0.0 0.0 -0.0 0.489114 -32.1052 5.64595 -11.3792 -0.298758 -1.71791 36.0914 33.5155 5.77734 -12.0305 0.0 0.0 0.0 0.0 0.0 
3390.90809273 721.634 -1570.36532605 4.51020939845 67.5315022688 -3.85202584439 -0.948401 0.471455 -0.245215 -0.948498 0.486103 -0.214717 -0.950457 0.52209 -0.0991008 -0.950122 0.499886 -0.180313 -29.1317 17.4366 13.4745 -30.8605 28.752 23.1852 -0.0 0.0 -0.0 1.34358 23.5276 4.5584 -29.6819 3.99 76.0476 1.05069 -27.4953 0.257063 -11.663 -0.553744 1.38198 -1.18049 14.2306 -1.52523 -0.0 0.0 -0.0 13.8898 29.7911 -27.2227 10.9931 19.3253 -61.048 1.14932 29.6535 -0.304245 64.342 2.17536 7.49355 0.948067 -28.8959 -16.5942 0.0 0.0 0.0 21.3373 11.7587 -18.1289 -24.8837 0.205796 3.78316 24.3342 -1.75662 -3.28894 -0.219741 0.0 0.0 -0.0 0.0 -0.0 0.0407396 -29.0676 4.91742 -12.2299 -0.307294 -1.84815 36.947 34.0895 5.91918 -11.9234 0.0 0.0 0.0 0.0 0.0 
3390.0902552 721.634 -1568.77935343 4.6063187649 68.0240054628 -3.95584565958 -0.948401 0.471455 -0.245215 -0.948498 0.486103 -0.214717 -0.950457 0.52209 -0.0991008 -0.950122 0.499886 -0.180313 -29.1317 17.4366 13.4745 -30.8605 28.752 23.1852 -0.0 0.0 -0.0 1.34358 23.5276 4.5584 -29.6819 3.99 76.0476 1.05069 -27.4953 0.257063 -11.663 -0.553744 1.38198 -1.18049 14.2306 -1.52523 -0.0 0.0 -0.0 13.8898 29.7911 -27.2227 10.9931 19.3253 -61.048 1.14932 29.6535 -0.304245 64.342 2.17536 7.49355 0.948067 -28.8959 -16.5942 0.0 0.0 0.0 21.3373 11.7587 -18.1289 -24.8837 0.205796 3.78316 24.3342 -1.75662 -3.28894 -0.219741 0.0 0.0 -0.0 0.0 -0.0 0.0407396 -29.0676 4.91742 -12.2299 -0.307294 -1.84815 36.947 34.0895 5.91918 -11.9234 0.0 0.0 0.0 0.0 0.0 
3377.21011949 717.28 -1568.12788772 3.62377585683 70.4095872253 -2.40808042667 -0.986646 0.291808 -0.28975 -0.986653 0.309654 -0.270594 -0.988175 0.362999 -0.193233 -0.988078 0.327926 -0.248137 -29.3432 17.0804 13.2703 -31.0141 28.1709 22.834 -0.0 0.0 -0.0 1.26721 23.3963 4.44439 -30.6381 4.13446 76.4932 1.00861 -26.5477 0.237944 -11.9001 -0.567887 1.40882 -1.04326 14.4892 -0.55678 -0.0 0.0 -0.0 13.8133 29.301 -27.1196 12.3287 20.3652 -61.5415 1.21609 31.0642 -0.337997 65.5837 2.29545 7.59817 1.10586 -28.0528 -17.2553 0.0 0.0 0.0 22.5849 10.4964 -19.2295 -18.7062 0.308791 2.84129 19.2024 -2.44763 -2.66889 -1.6805 0.0 0.0 -0.0 0.0 -0.0 0.173624 -33.9994 5.48385 -13.1697 -0.314475 -1.99217 37.2249 33.9139 5.93478 -11.4642 0.0 0.0 0.0 0.0 0.0 
3367.07567152 717.494 -1566.24235515 2.66166566291 73.7832617231 -0.824090299479 -0.943198 0.00747434 -0.396655 -0.943111 0.0326991 -0.395375 -0.943287 0.121304 -0.377725 -0.94348 0.0601275 -0.392142 -29.5247 16.799 12.6472 -31.2159 27.8606 22.1557 -0.0 0.0 -0.0 1.23935 22.9615 4.37435 -31.1114 4.50806 76.2772 0.993548 -26.2047 0.231255 -11.8703 -0.566103 1.40545 -0.987192 14.7011 -0.115655 -0.0 0.0 -0.0 13.6452 28.8594 -26.7955 13.3792 21.1604 -61.8308 1.2771 32.3175 -0.370049 66.5874 2.39417 7.68083 1.32009 -28.068 -18.4977 0.0 0.0 0.0 22.7151 10.8338 -18.5294 -13.0207 0.313494 1.96933 15.7244 -1.83701 -2.21639 -2.58303 0.0 0.0 -0.0 0.0 -0.0 -0.755828 -32.8168 4.42634 -13.9839 -0.318786 -2.11702 37.1195 33.6808 5.90402 -11.2671 0.0 0.0 0.0 0.0 0.0 
3351.81147906 716.149 -1561.85904456 2.22632238638 76.7806254643 -0.437756943768 -0.946411 -0.17901 -0.441983 -0.946316 -0.150523 -0.452478 -0.945017 -0.0442386 -0.474801 -0.945311 -0.118669 -0.461856 -29.0028 16.7408 11.6115 -30.7433 28.0218 21.0082 -0.0 0.0 -0.0 1.40133 22.8519 4.59123 -31.3338 4.73347 76.1624 0.972487 -25.7216 0.222034 -11.8664 -0.565869 1.40501 -0.960395 15.0834 0.217304 -0.0 0.0 -0.0 13.5646 27.7991 -26.7567 13.7807 22.086 -61.5041 1.34547 33.6819 -0.407287 67.3668 2.47181 7.74382 1.50171 -28.1076 -19.5666 0.0 0.0 0.0 23.8693 10.8634 -18.5355 -8.99377 0.264518 1.35351 13.104 -1.96694 -1.86807 -3.40032 0.0 0.0 -0.0 0.0 -0.0 -1.27031 -32.2272 4.88747 -15.0102 -0.321692 -2.27445 37.4105 33.4621 5.91748 -10.9627 0.0 0.0 0.0 0.0 0.0 
3350.98604234 716.149 -1559.7199439 2.3211777222 77.3297393031 -0.535084649778 -0.946411 -0.17901 -0.441983 -0.946316 -0.150523 -0.452478 -0.945017 -0.0442386 -0.474801 -0.945311 -0.118669 -0.461856 -29.0028 16.7408 11.6115 -30.7433 28.0218 21.0082 -0.0 0.0 -0.0 1.40133 22.8519 4.59123 -31.3338 4.73347 76.1624 0.972487 -25.7216 0.222034 -11.8664 -0.565869 1.40501 -0.960395 15.0834 0.217304 -0.0 0.0 -0.0 13.5646 27.7991 -26.7567 13.7807 22.086 -61.5041 1.34547 33.6819 -0.407287 67.3668 2.47181 7.74382 1.50171 -28.1076 -19.5666 0.0 0.0 0.0 23.8693 10.8634 -18.5355 -8.99377 0.264518 1.35351 13.104 -1.96694 -1.86807 -3.40032 0.0 0.0 -0.0 0.0 -0.0 -1.27031 -32.2272 4.88747 -15.0102 -0.321692 -2.27445 37.4105 33.4621 5.91748 -10.9627 0.0 0.0 0.0 0.0 0.0 
